<svg width="298" height="300" viewBox="0 0 298 300" fill="none" xmlns="http://www.w3.org/2000/svg">
<path d="M5.02905 10C7.79047 10 10.0291 7.76142 10.0291 5C10.0291 2.23858 7.79047 0 5.02905 0C2.26763 0 0.0290527 2.23858 0.0290527 5C0.0290527 7.76142 2.26763 10 5.02905 10Z" fill="url(#paint0_linear)" fill-opacity="0.5"/>
<path d="M36.9553 10C39.7167 10 41.9553 7.76142 41.9553 5C41.9553 2.23858 39.7167 0 36.9553 0C34.1939 0 31.9553 2.23858 31.9553 5C31.9553 7.76142 34.1939 10 36.9553 10Z" fill="#E6E6E6" fill-opacity="0.5"/>
<path d="M68.8816 10C71.643 10 73.8816 7.76142 73.8816 5C73.8816 2.23858 71.643 0 68.8816 0C66.1202 0 63.8816 2.23858 63.8816 5C63.8816 7.76142 66.1202 10 68.8816 10Z" fill="#E6E6E6" fill-opacity="0.5"/>
<path d="M100.808 10C103.569 10 105.808 7.76142 105.808 5C105.808 2.23858 103.569 0 100.808 0C98.0464 0 95.8079 2.23858 95.8079 5C95.8079 7.76142 98.0464 10 100.808 10Z" fill="#E6E6E6" fill-opacity="0.5"/>
<path d="M132.734 10C135.496 10 137.734 7.76142 137.734 5C137.734 2.23858 135.496 0 132.734 0C129.973 0 127.734 2.23858 127.734 5C127.734 7.76142 129.973 10 132.734 10Z" fill="#E6E6E6" fill-opacity="0.5"/>
<path d="M5.02905 41.946C7.79047 41.946 10.0291 39.7075 10.0291 36.946C10.0291 34.1846 7.79047 31.946 5.02905 31.946C2.26763 31.946 0.0290527 34.1846 0.0290527 36.946C0.0290527 39.7075 2.26763 41.946 5.02905 41.946Z" fill="#E6E6E6" fill-opacity="0.5"/>
<path d="M36.9553 41.946C39.7167 41.946 41.9553 39.7075 41.9553 36.946C41.9553 34.1846 39.7167 31.946 36.9553 31.946C34.1939 31.946 31.9553 34.1846 31.9553 36.946C31.9553 39.7075 34.1939 41.946 36.9553 41.946Z" fill="url(#paint1_linear)" fill-opacity="0.5"/>
<path d="M68.8816 41.946C71.643 41.946 73.8816 39.7075 73.8816 36.946C73.8816 34.1846 71.643 31.946 68.8816 31.946C66.1202 31.946 63.8816 34.1846 63.8816 36.946C63.8816 39.7075 66.1202 41.946 68.8816 41.946Z" fill="#E6E6E6" fill-opacity="0.5"/>
<path d="M100.808 41.946C103.569 41.946 105.808 39.7075 105.808 36.946C105.808 34.1846 103.569 31.946 100.808 31.946C98.0464 31.946 95.8079 34.1846 95.8079 36.946C95.8079 39.7075 98.0464 41.946 100.808 41.946Z" fill="url(#paint2_linear)" fill-opacity="0.5"/>
<path d="M132.734 41.946C135.496 41.946 137.734 39.7075 137.734 36.946C137.734 34.1846 135.496 31.946 132.734 31.946C129.973 31.946 127.734 34.1846 127.734 36.946C127.734 39.7075 129.973 41.946 132.734 41.946Z" fill="#E6E6E6" fill-opacity="0.5"/>
<path d="M5.02905 73.8921C7.79047 73.8921 10.0291 71.6535 10.0291 68.8921C10.0291 66.1307 7.79047 63.8921 5.02905 63.8921C2.26763 63.8921 0.0290527 66.1307 0.0290527 68.8921C0.0290527 71.6535 2.26763 73.8921 5.02905 73.8921Z" fill="#E6E6E6" fill-opacity="0.5"/>
<path d="M36.9553 73.8921C39.7167 73.8921 41.9553 71.6535 41.9553 68.8921C41.9553 66.1307 39.7167 63.8921 36.9553 63.8921C34.1939 63.8921 31.9553 66.1307 31.9553 68.8921C31.9553 71.6535 34.1939 73.8921 36.9553 73.8921Z" fill="#3F3D56" fill-opacity="0.5"/>
<path d="M68.8816 73.8921C71.643 73.8921 73.8816 71.6535 73.8816 68.8921C73.8816 66.1307 71.643 63.8921 68.8816 63.8921C66.1202 63.8921 63.8816 66.1307 63.8816 68.8921C63.8816 71.6535 66.1202 73.8921 68.8816 73.8921Z" fill="#E6E6E6" fill-opacity="0.5"/>
<path d="M100.808 73.8921C103.569 73.8921 105.808 71.6535 105.808 68.8921C105.808 66.1307 103.569 63.8921 100.808 63.8921C98.0464 63.8921 95.8079 66.1307 95.8079 68.8921C95.8079 71.6535 98.0464 73.8921 100.808 73.8921Z" fill="#E6E6E6" fill-opacity="0.5"/>
<path d="M132.734 73.8921C135.496 73.8921 137.734 71.6535 137.734 68.8921C137.734 66.1307 135.496 63.8921 132.734 63.8921C129.973 63.8921 127.734 66.1307 127.734 68.8921C127.734 71.6535 129.973 73.8921 132.734 73.8921Z" fill="#E6E6E6" fill-opacity="0.5"/>
<path d="M164.219 10C166.981 10 169.219 7.76142 169.219 5C169.219 2.23858 166.981 0 164.219 0C161.458 0 159.219 2.23858 159.219 5C159.219 7.76142 161.458 10 164.219 10Z" fill="url(#paint3_linear)" fill-opacity="0.5"/>
<path d="M196.145 10C198.907 10 201.146 7.76142 201.146 5C201.146 2.23858 198.907 0 196.145 0C193.384 0 191.146 2.23858 191.146 5C191.146 7.76142 193.384 10 196.145 10Z" fill="#E6E6E6" fill-opacity="0.5"/>
<path d="M228.072 10C230.833 10 233.072 7.76142 233.072 5C233.072 2.23858 230.833 0 228.072 0C225.31 0 223.072 2.23858 223.072 5C223.072 7.76142 225.31 10 228.072 10Z" fill="#E6E6E6" fill-opacity="0.5"/>
<path d="M259.998 10C262.759 10 264.998 7.76142 264.998 5C264.998 2.23858 262.759 0 259.998 0C257.236 0 254.998 2.23858 254.998 5C254.998 7.76142 257.236 10 259.998 10Z" fill="#E6E6E6" fill-opacity="0.5"/>
<path d="M291.924 10C294.686 10 296.924 7.76142 296.924 5C296.924 2.23858 294.686 0 291.924 0C289.163 0 286.924 2.23858 286.924 5C286.924 7.76142 289.163 10 291.924 10Z" fill="#E6E6E6" fill-opacity="0.5"/>
<path d="M164.219 41.946C166.981 41.946 169.219 39.7075 169.219 36.946C169.219 34.1846 166.981 31.946 164.219 31.946C161.458 31.946 159.219 34.1846 159.219 36.946C159.219 39.7075 161.458 41.946 164.219 41.946Z" fill="#E6E6E6" fill-opacity="0.5"/>
<path d="M196.145 41.946C198.907 41.946 201.146 39.7075 201.146 36.946C201.146 34.1846 198.907 31.946 196.145 31.946C193.384 31.946 191.146 34.1846 191.146 36.946C191.146 39.7075 193.384 41.946 196.145 41.946Z" fill="url(#paint4_linear)" fill-opacity="0.5"/>
<path d="M228.072 41.946C230.833 41.946 233.072 39.7075 233.072 36.946C233.072 34.1846 230.833 31.946 228.072 31.946C225.31 31.946 223.072 34.1846 223.072 36.946C223.072 39.7075 225.31 41.946 228.072 41.946Z" fill="#E6E6E6" fill-opacity="0.5"/>
<path d="M259.998 41.946C262.759 41.946 264.998 39.7075 264.998 36.946C264.998 34.1846 262.759 31.946 259.998 31.946C257.236 31.946 254.998 34.1846 254.998 36.946C254.998 39.7075 257.236 41.946 259.998 41.946Z" fill="url(#paint5_linear)" fill-opacity="0.5"/>
<path d="M291.924 41.946C294.686 41.946 296.924 39.7075 296.924 36.946C296.924 34.1846 294.686 31.946 291.924 31.946C289.163 31.946 286.924 34.1846 286.924 36.946C286.924 39.7075 289.163 41.946 291.924 41.946Z" fill="#E6E6E6" fill-opacity="0.5"/>
<path d="M164.219 73.8921C166.981 73.8921 169.219 71.6535 169.219 68.8921C169.219 66.1307 166.981 63.8921 164.219 63.8921C161.458 63.8921 159.219 66.1307 159.219 68.8921C159.219 71.6535 161.458 73.8921 164.219 73.8921Z" fill="#E6E6E6" fill-opacity="0.5"/>
<path d="M196.145 73.8921C198.907 73.8921 201.146 71.6535 201.146 68.8921C201.146 66.1307 198.907 63.8921 196.145 63.8921C193.384 63.8921 191.146 66.1307 191.146 68.8921C191.146 71.6535 193.384 73.8921 196.145 73.8921Z" fill="#E6E6E6" fill-opacity="0.5"/>
<path d="M228.072 73.8921C230.833 73.8921 233.072 71.6535 233.072 68.8921C233.072 66.1307 230.833 63.8921 228.072 63.8921C225.31 63.8921 223.072 66.1307 223.072 68.8921C223.072 71.6535 225.31 73.8921 228.072 73.8921Z" fill="#E6E6E6" fill-opacity="0.5"/>
<path d="M259.998 73.8921C262.759 73.8921 264.998 71.6535 264.998 68.8921C264.998 66.1307 262.759 63.8921 259.998 63.8921C257.236 63.8921 254.998 66.1307 254.998 68.8921C254.998 71.6535 257.236 73.8921 259.998 73.8921Z" fill="#E6E6E6" fill-opacity="0.5"/>
<path d="M291.924 73.8921C294.686 73.8921 296.924 71.6535 296.924 68.8921C296.924 66.1307 294.686 63.8921 291.924 63.8921C289.163 63.8921 286.924 66.1307 286.924 68.8921C286.924 71.6535 289.163 73.8921 291.924 73.8921Z" fill="#E6E6E6" fill-opacity="0.5"/>
<path d="M5.02905 105.838C7.79047 105.838 10.0291 103.6 10.0291 100.838C10.0291 98.0767 7.79047 95.8381 5.02905 95.8381C2.26763 95.8381 0.0290527 98.0767 0.0290527 100.838C0.0290527 103.6 2.26763 105.838 5.02905 105.838Z" fill="#E6E6E6" fill-opacity="0.5"/>
<path d="M36.9553 105.838C39.7167 105.838 41.9553 103.6 41.9553 100.838C41.9553 98.0767 39.7167 95.8381 36.9553 95.8381C34.1939 95.8381 31.9553 98.0767 31.9553 100.838C31.9553 103.6 34.1939 105.838 36.9553 105.838Z" fill="url(#paint6_linear)" fill-opacity="0.5"/>
<path d="M68.8816 105.838C71.643 105.838 73.8816 103.6 73.8816 100.838C73.8816 98.0767 71.643 95.8381 68.8816 95.8381C66.1202 95.8381 63.8816 98.0767 63.8816 100.838C63.8816 103.6 66.1202 105.838 68.8816 105.838Z" fill="#E6E6E6" fill-opacity="0.5"/>
<path d="M100.808 105.838C103.569 105.838 105.808 103.6 105.808 100.838C105.808 98.0767 103.569 95.8381 100.808 95.8381C98.0464 95.8381 95.8079 98.0767 95.8079 100.838C95.8079 103.6 98.0464 105.838 100.808 105.838Z" fill="#E6E6E6" fill-opacity="0.5"/>
<path d="M132.734 105.838C135.496 105.838 137.734 103.6 137.734 100.838C137.734 98.0767 135.496 95.8381 132.734 95.8381C129.973 95.8381 127.734 98.0767 127.734 100.838C127.734 103.6 129.973 105.838 132.734 105.838Z" fill="#3F3D56" fill-opacity="0.5"/>
<path d="M164.66 105.838C167.422 105.838 169.66 103.6 169.66 100.838C169.66 98.0767 167.422 95.8381 164.66 95.8381C161.899 95.8381 159.66 98.0767 159.66 100.838C159.66 103.6 161.899 105.838 164.66 105.838Z" fill="#E6E6E6" fill-opacity="0.5"/>
<path d="M196.587 105.838C199.348 105.838 201.587 103.6 201.587 100.838C201.587 98.0767 199.348 95.8381 196.587 95.8381C193.826 95.8381 191.587 98.0767 191.587 100.838C191.587 103.6 193.826 105.838 196.587 105.838Z" fill="#E6E6E6" fill-opacity="0.5"/>
<path d="M228.513 105.838C231.274 105.838 233.513 103.6 233.513 100.838C233.513 98.0767 231.274 95.8381 228.513 95.8381C225.752 95.8381 223.513 98.0767 223.513 100.838C223.513 103.6 225.752 105.838 228.513 105.838Z" fill="#E6E6E6" fill-opacity="0.5"/>
<path d="M260.439 105.838C263.201 105.838 265.439 103.6 265.439 100.838C265.439 98.0767 263.201 95.8381 260.439 95.8381C257.678 95.8381 255.439 98.0767 255.439 100.838C255.439 103.6 257.678 105.838 260.439 105.838Z" fill="#E6E6E6" fill-opacity="0.5"/>
<path d="M292.365 105.838C295.127 105.838 297.365 103.6 297.365 100.838C297.365 98.0767 295.127 95.8381 292.365 95.8381C289.604 95.8381 287.365 98.0767 287.365 100.838C287.365 103.6 289.604 105.838 292.365 105.838Z" fill="url(#paint7_linear)" fill-opacity="0.5"/>
<path d="M132.734 137.784C135.496 137.784 137.734 135.545 137.734 132.784C137.734 130.023 135.496 127.784 132.734 127.784C129.973 127.784 127.734 130.023 127.734 132.784C127.734 135.545 129.973 137.784 132.734 137.784Z" fill="#E6E6E6" fill-opacity="0.5"/>
<path d="M164.66 137.784C167.422 137.784 169.66 135.545 169.66 132.784C169.66 130.023 167.422 127.784 164.66 127.784C161.899 127.784 159.66 130.023 159.66 132.784C159.66 135.545 161.899 137.784 164.66 137.784Z" fill="url(#paint8_linear)" fill-opacity="0.5"/>
<path d="M196.587 137.784C199.348 137.784 201.587 135.545 201.587 132.784C201.587 130.023 199.348 127.784 196.587 127.784C193.826 127.784 191.587 130.023 191.587 132.784C191.587 135.545 193.826 137.784 196.587 137.784Z" fill="#E6E6E6" fill-opacity="0.5"/>
<path d="M228.513 137.784C231.274 137.784 233.513 135.545 233.513 132.784C233.513 130.023 231.274 127.784 228.513 127.784C225.752 127.784 223.513 130.023 223.513 132.784C223.513 135.545 225.752 137.784 228.513 137.784Z" fill="#E6E6E6" fill-opacity="0.5"/>
<path d="M260.439 137.784C263.201 137.784 265.439 135.545 265.439 132.784C265.439 130.023 263.201 127.784 260.439 127.784C257.678 127.784 255.439 130.023 255.439 132.784C255.439 135.545 257.678 137.784 260.439 137.784Z" fill="#E6E6E6" fill-opacity="0.5"/>
<path d="M292.365 137.784C295.127 137.784 297.365 135.545 297.365 132.784C297.365 130.023 295.127 127.784 292.365 127.784C289.604 127.784 287.365 130.023 287.365 132.784C287.365 135.545 289.604 137.784 292.365 137.784Z" fill="#E6E6E6" fill-opacity="0.5"/>
<path d="M132.734 169.73C135.496 169.73 137.734 167.492 137.734 164.73C137.734 161.969 135.496 159.73 132.734 159.73C129.973 159.73 127.734 161.969 127.734 164.73C127.734 167.492 129.973 169.73 132.734 169.73Z" fill="#E6E6E6" fill-opacity="0.5"/>
<path d="M164.66 169.73C167.422 169.73 169.66 167.492 169.66 164.73C169.66 161.969 167.422 159.73 164.66 159.73C161.899 159.73 159.66 161.969 159.66 164.73C159.66 167.492 161.899 169.73 164.66 169.73Z" fill="#E6E6E6" fill-opacity="0.5"/>
<path d="M196.587 169.73C199.348 169.73 201.587 167.492 201.587 164.73C201.587 161.969 199.348 159.73 196.587 159.73C193.826 159.73 191.587 161.969 191.587 164.73C191.587 167.492 193.826 169.73 196.587 169.73Z" fill="#E6E6E6" fill-opacity="0.5"/>
<path d="M228.513 169.73C231.274 169.73 233.513 167.492 233.513 164.73C233.513 161.969 231.274 159.73 228.513 159.73C225.752 159.73 223.513 161.969 223.513 164.73C223.513 167.492 225.752 169.73 228.513 169.73Z" fill="#E6E6E6" fill-opacity="0.5"/>
<path d="M260.439 169.73C263.201 169.73 265.439 167.491 265.439 164.73C265.439 161.969 263.201 159.73 260.439 159.73C257.678 159.73 255.439 161.969 255.439 164.73C255.439 167.491 257.678 169.73 260.439 169.73Z" fill="url(#paint9_linear)" fill-opacity="0.5"/>
<path d="M292.365 169.73C295.127 169.73 297.365 167.491 297.365 164.73C297.365 161.969 295.127 159.73 292.365 159.73C289.604 159.73 287.365 161.969 287.365 164.73C287.365 167.491 289.604 169.73 292.365 169.73Z" fill="#E6E6E6" fill-opacity="0.5"/>
<path d="M132.734 201.676C135.496 201.676 137.734 199.438 137.734 196.676C137.734 193.915 135.496 191.676 132.734 191.676C129.973 191.676 127.734 193.915 127.734 196.676C127.734 199.438 129.973 201.676 132.734 201.676Z" fill="#E6E6E6" fill-opacity="0.5"/>
<path d="M164.66 201.676C167.422 201.676 169.66 199.438 169.66 196.676C169.66 193.915 167.422 191.676 164.66 191.676C161.899 191.676 159.66 193.915 159.66 196.676C159.66 199.438 161.899 201.676 164.66 201.676Z" fill="#E6E6E6" fill-opacity="0.5"/>
<path d="M196.587 201.676C199.348 201.676 201.587 199.438 201.587 196.676C201.587 193.915 199.348 191.676 196.587 191.676C193.826 191.676 191.587 193.915 191.587 196.676C191.587 199.438 193.826 201.676 196.587 201.676Z" fill="#E6E6E6" fill-opacity="0.5"/>
<path d="M228.513 201.676C231.274 201.676 233.513 199.438 233.513 196.676C233.513 193.915 231.274 191.676 228.513 191.676C225.752 191.676 223.513 193.915 223.513 196.676C223.513 199.438 225.752 201.676 228.513 201.676Z" fill="#E6E6E6" fill-opacity="0.5"/>
<path d="M5.00002 138.07C7.76145 138.07 10 135.831 10 133.07C10 130.308 7.76145 128.07 5.00002 128.07C2.23859 128.07 0 130.308 0 133.07C0 135.831 2.23859 138.07 5.00002 138.07Z" fill="#E6E6E6" fill-opacity="0.5"/>
<path d="M36.926 138.07C39.6874 138.07 41.926 135.831 41.926 133.07C41.926 130.308 39.6874 128.07 36.926 128.07C34.1646 128.07 31.926 130.308 31.926 133.07C31.926 135.831 34.1646 138.07 36.926 138.07Z" fill="#E6E6E6" fill-opacity="0.5"/>
<path d="M68.8526 138.07C71.614 138.07 73.8525 135.831 73.8525 133.07C73.8525 130.308 71.614 128.07 68.8526 128.07C66.0911 128.07 63.8525 130.308 63.8525 133.07C63.8525 135.831 66.0911 138.07 68.8526 138.07Z" fill="#E6E6E6" fill-opacity="0.5"/>
<path d="M100.779 138.07C103.54 138.07 105.779 135.831 105.779 133.07C105.779 130.308 103.54 128.07 100.779 128.07C98.0174 128.07 95.7788 130.308 95.7788 133.07C95.7788 135.831 98.0174 138.07 100.779 138.07Z" fill="#E6E6E6" fill-opacity="0.5"/>
<path d="M5.00002 170.016C7.76145 170.016 10 167.777 10 165.016C10 162.254 7.76145 160.016 5.00002 160.016C2.23859 160.016 0 162.254 0 165.016C0 167.777 2.23859 170.016 5.00002 170.016Z" fill="#E6E6E6" fill-opacity="0.5"/>
<path d="M36.926 170.016C39.6874 170.016 41.926 167.777 41.926 165.016C41.926 162.254 39.6874 160.016 36.926 160.016C34.1646 160.016 31.926 162.254 31.926 165.016C31.926 167.777 34.1646 170.016 36.926 170.016Z" fill="url(#paint10_linear)"/>
<path d="M68.8526 170.016C71.614 170.016 73.8525 167.777 73.8525 165.016C73.8525 162.254 71.614 160.016 68.8526 160.016C66.0911 160.016 63.8525 162.254 63.8525 165.016C63.8525 167.777 66.0911 170.016 68.8526 170.016Z" fill="#E6E6E6" fill-opacity="0.5"/>
<path d="M100.779 170.016C103.54 170.016 105.779 167.777 105.779 165.016C105.779 162.254 103.54 160.016 100.779 160.016C98.0174 160.016 95.7788 162.254 95.7788 165.016C95.7788 167.777 98.0174 170.016 100.779 170.016Z" fill="#E6E6E6" fill-opacity="0.5"/>
<path d="M5.00002 201.962C7.76145 201.962 10 199.723 10 196.962C10 194.2 7.76145 191.962 5.00002 191.962C2.23859 191.962 0 194.2 0 196.962C0 199.723 2.23859 201.962 5.00002 201.962Z" fill="#E6E6E6" fill-opacity="0.5"/>
<path d="M36.926 201.962C39.6874 201.962 41.926 199.723 41.926 196.962C41.926 194.2 39.6874 191.962 36.926 191.962C34.1646 191.962 31.926 194.2 31.926 196.962C31.926 199.723 34.1646 201.962 36.926 201.962Z" fill="#E6E6E6" fill-opacity="0.5"/>
<path d="M68.8526 201.962C71.614 201.962 73.8525 199.723 73.8525 196.962C73.8525 194.2 71.614 191.962 68.8526 191.962C66.0911 191.962 63.8525 194.2 63.8525 196.962C63.8525 199.723 66.0911 201.962 68.8526 201.962Z" fill="#E6E6E6" fill-opacity="0.5"/>
<path d="M100.779 201.962C103.54 201.962 105.779 199.723 105.779 196.962C105.779 194.2 103.54 191.962 100.779 191.962C98.0174 191.962 95.7788 194.2 95.7788 196.962C95.7788 199.723 98.0174 201.962 100.779 201.962Z" fill="#3F3D56" fill-opacity="0.5"/>
<path d="M260.439 201.676C263.201 201.676 265.439 199.438 265.439 196.676C265.439 193.915 263.201 191.676 260.439 191.676C257.678 191.676 255.439 193.915 255.439 196.676C255.439 199.438 257.678 201.676 260.439 201.676Z" fill="#E6E6E6" fill-opacity="0.5"/>
<path d="M292.365 201.676C295.127 201.676 297.365 199.438 297.365 196.676C297.365 193.915 295.127 191.676 292.365 191.676C289.604 191.676 287.365 193.915 287.365 196.676C287.365 199.438 289.604 201.676 292.365 201.676Z" fill="#E6E6E6" fill-opacity="0.5"/>
<path d="M5.02905 233.622C7.79047 233.622 10.0291 231.383 10.0291 228.622C10.0291 225.861 7.79047 223.622 5.02905 223.622C2.26763 223.622 0.0290527 225.861 0.0290527 228.622C0.0290527 231.383 2.26763 233.622 5.02905 233.622Z" fill="#E6E6E6" fill-opacity="0.5"/>
<path d="M36.9553 233.622C39.7167 233.622 41.9553 231.383 41.9553 228.622C41.9553 225.861 39.7167 223.622 36.9553 223.622C34.1939 223.622 31.9553 225.861 31.9553 228.622C31.9553 231.383 34.1939 233.622 36.9553 233.622Z" fill="#E6E6E6" fill-opacity="0.5"/>
<path d="M68.8816 233.622C71.643 233.622 73.8816 231.383 73.8816 228.622C73.8816 225.861 71.643 223.622 68.8816 223.622C66.1202 223.622 63.8816 225.861 63.8816 228.622C63.8816 231.383 66.1202 233.622 68.8816 233.622Z" fill="#E6E6E6" fill-opacity="0.5"/>
<path d="M100.808 233.622C103.569 233.622 105.808 231.383 105.808 228.622C105.808 225.861 103.569 223.622 100.808 223.622C98.0464 223.622 95.8079 225.861 95.8079 228.622C95.8079 231.383 98.0464 233.622 100.808 233.622Z" fill="url(#paint11_linear)"/>
<path d="M132.734 233.622C135.496 233.622 137.734 231.383 137.734 228.622C137.734 225.861 135.496 223.622 132.734 223.622C129.973 223.622 127.734 225.861 127.734 228.622C127.734 231.383 129.973 233.622 132.734 233.622Z" fill="#E6E6E6" fill-opacity="0.5"/>
<path d="M164.66 233.622C167.422 233.622 169.66 231.383 169.66 228.622C169.66 225.861 167.422 223.622 164.66 223.622C161.899 223.622 159.66 225.861 159.66 228.622C159.66 231.383 161.899 233.622 164.66 233.622Z" fill="#E6E6E6" fill-opacity="0.5"/>
<path d="M196.587 233.622C199.348 233.622 201.587 231.383 201.587 228.622C201.587 225.861 199.348 223.622 196.587 223.622C193.826 223.622 191.587 225.861 191.587 228.622C191.587 231.383 193.826 233.622 196.587 233.622Z" fill="url(#paint12_linear)" fill-opacity="0.5"/>
<path d="M228.513 233.622C231.274 233.622 233.513 231.383 233.513 228.622C233.513 225.861 231.274 223.622 228.513 223.622C225.752 223.622 223.513 225.861 223.513 228.622C223.513 231.383 225.752 233.622 228.513 233.622Z" fill="#E6E6E6" fill-opacity="0.5"/>
<path d="M260.439 233.622C263.201 233.622 265.439 231.384 265.439 228.622C265.439 225.861 263.201 223.622 260.439 223.622C257.678 223.622 255.439 225.861 255.439 228.622C255.439 231.384 257.678 233.622 260.439 233.622Z" fill="#E6E6E6" fill-opacity="0.5"/>
<path d="M292.365 233.622C295.127 233.622 297.365 231.384 297.365 228.622C297.365 225.861 295.127 223.622 292.365 223.622C289.604 223.622 287.365 225.861 287.365 228.622C287.365 231.384 289.604 233.622 292.365 233.622Z" fill="#E6E6E6" fill-opacity="0.5"/>
<path d="M132.755 265.225C135.516 265.225 137.755 262.986 137.755 260.225C137.755 257.463 135.516 255.225 132.755 255.225C129.993 255.225 127.755 257.463 127.755 260.225C127.755 262.986 129.993 265.225 132.755 265.225Z" fill="#E6E6E6" fill-opacity="0.5"/>
<path d="M164.681 265.225C167.442 265.225 169.681 262.986 169.681 260.225C169.681 257.463 167.442 255.225 164.681 255.225C161.919 255.225 159.681 257.463 159.681 260.225C159.681 262.986 161.919 265.225 164.681 265.225Z" fill="#E6E6E6" fill-opacity="0.5"/>
<path d="M196.607 265.225C199.369 265.225 201.607 262.986 201.607 260.225C201.607 257.463 199.369 255.225 196.607 255.225C193.846 255.225 191.607 257.463 191.607 260.225C191.607 262.986 193.846 265.225 196.607 265.225Z" fill="#E6E6E6" fill-opacity="0.5"/>
<path d="M228.533 265.225C231.295 265.225 233.533 262.986 233.533 260.225C233.533 257.463 231.295 255.225 228.533 255.225C225.772 255.225 223.533 257.463 223.533 260.225C223.533 262.986 225.772 265.225 228.533 265.225Z" fill="#3F3D56" fill-opacity="0.5"/>
<path d="M68.8728 265.51C71.6343 265.51 73.8728 263.272 73.8728 260.51C73.8728 257.749 71.6343 255.51 68.8728 255.51C66.1114 255.51 63.8728 257.749 63.8728 260.51C63.8728 263.272 66.1114 265.51 68.8728 265.51Z" fill="#E6E6E6" fill-opacity="0.5"/>
<path d="M100.799 265.51C103.56 265.51 105.799 263.272 105.799 260.51C105.799 257.749 103.56 255.51 100.799 255.51C98.0377 255.51 95.7991 257.749 95.7991 260.51C95.7991 263.272 98.0377 265.51 100.799 265.51Z" fill="#E6E6E6" fill-opacity="0.5"/>
<path d="M260.46 265.225C263.221 265.225 265.46 262.986 265.46 260.225C265.46 257.463 263.221 255.225 260.46 255.225C257.698 255.225 255.46 257.463 255.46 260.225C255.46 262.986 257.698 265.225 260.46 265.225Z" fill="#E6E6E6" fill-opacity="0.5"/>
<path d="M292.386 265.225C295.147 265.225 297.386 262.986 297.386 260.225C297.386 257.463 295.147 255.225 292.386 255.225C289.624 255.225 287.386 257.463 287.386 260.225C287.386 262.986 289.624 265.225 292.386 265.225Z" fill="#E6E6E6" fill-opacity="0.5"/>
<path d="M68.9019 297.17C71.6633 297.17 73.9019 294.932 73.9019 292.17C73.9019 289.409 71.6633 287.17 68.9019 287.17C66.1404 287.17 63.9019 289.409 63.9019 292.17C63.9019 294.932 66.1404 297.17 68.9019 297.17Z" fill="#E6E6E6" fill-opacity="0.5"/>
<path d="M100.828 297.17C103.59 297.17 105.828 294.932 105.828 292.17C105.828 289.409 103.59 287.17 100.828 287.17C98.0667 287.17 95.8281 289.409 95.8281 292.17C95.8281 294.932 98.0667 297.17 100.828 297.17Z" fill="url(#paint13_linear)"/>
<path d="M132.755 297.17C135.516 297.17 137.755 294.932 137.755 292.17C137.755 289.409 135.516 287.17 132.755 287.17C129.993 287.17 127.755 289.409 127.755 292.17C127.755 294.932 129.993 297.17 132.755 297.17Z" fill="#E6E6E6" fill-opacity="0.5"/>
<path d="M164.681 297.17C167.442 297.17 169.681 294.932 169.681 292.17C169.681 289.409 167.442 287.17 164.681 287.17C161.919 287.17 159.681 289.409 159.681 292.17C159.681 294.932 161.919 297.17 164.681 297.17Z" fill="#E6E6E6" fill-opacity="0.5"/>
<path d="M196.607 297.17C199.369 297.17 201.607 294.932 201.607 292.17C201.607 289.409 199.369 287.17 196.607 287.17C193.846 287.17 191.607 289.409 191.607 292.17C191.607 294.932 193.846 297.17 196.607 297.17Z" fill="url(#paint14_linear)" fill-opacity="0.5"/>
<path d="M228.533 297.17C231.295 297.17 233.533 294.932 233.533 292.17C233.533 289.409 231.295 287.17 228.533 287.17C225.772 287.17 223.533 289.409 223.533 292.17C223.533 294.932 225.772 297.17 228.533 297.17Z" fill="#E6E6E6" fill-opacity="0.5"/>
<path d="M260.46 297.17C263.221 297.17 265.46 294.932 265.46 292.17C265.46 289.409 263.221 287.17 260.46 287.17C257.698 287.17 255.46 289.409 255.46 292.17C255.46 294.932 257.698 297.17 260.46 297.17Z" fill="#E6E6E6" fill-opacity="0.5"/>
<path d="M292.386 297.17C295.147 297.17 297.386 294.932 297.386 292.17C297.386 289.409 295.147 287.17 292.386 287.17C289.624 287.17 287.386 289.409 287.386 292.17C287.386 294.932 289.624 297.17 292.386 297.17Z" fill="#E6E6E6" fill-opacity="0.5"/>
<path d="M10.0221 263.044C10.0344 260.283 7.80575 258.036 5.04435 258.026C2.28294 258.015 0.0344468 260.246 0.0221911 263.007C0.00993528 265.769 2.23856 268.015 4.99997 268.026C7.76137 268.036 10.0099 265.806 10.0221 263.044Z" fill="#E6E6E6" fill-opacity="0.5"/>
<path d="M36.9553 265.568C39.7167 265.568 41.9553 263.33 41.9553 260.568C41.9553 257.807 39.7167 255.568 36.9553 255.568C34.1939 255.568 31.9553 257.807 31.9553 260.568C31.9553 263.33 34.1939 265.568 36.9553 265.568Z" fill="#E6E6E6" fill-opacity="0.5"/>
<path d="M10.0221 294.99C10.0344 292.229 7.80575 289.982 5.04435 289.972C2.28294 289.962 0.0344468 292.192 0.0221911 294.953C0.00993528 297.715 2.23856 299.961 4.99997 299.972C7.76137 299.982 10.0099 297.752 10.0221 294.99Z" fill="url(#paint15_linear)" fill-opacity="0.5"/>
<path d="M36.9553 297.514C39.7167 297.514 41.9553 295.276 41.9553 292.514C41.9553 289.753 39.7167 287.514 36.9553 287.514C34.1939 287.514 31.9553 289.753 31.9553 292.514C31.9553 295.276 34.1939 297.514 36.9553 297.514Z" fill="#E6E6E6" fill-opacity="0.5"/>
<defs>
<linearGradient id="paint0_linear" x1="0.0290527" y1="5" x2="10.0291" y2="5" gradientUnits="userSpaceOnUse">
<stop stop-color="#FFE259"/>
<stop offset="1" stop-color="#FFA751"/>
</linearGradient>
<linearGradient id="paint1_linear" x1="31.9553" y1="36.946" x2="41.9553" y2="36.946" gradientUnits="userSpaceOnUse">
<stop stop-color="#FFE259"/>
<stop offset="1" stop-color="#FFA751"/>
</linearGradient>
<linearGradient id="paint2_linear" x1="95.8079" y1="36.946" x2="105.808" y2="36.946" gradientUnits="userSpaceOnUse">
<stop stop-color="#FFE259"/>
<stop offset="1" stop-color="#FFA751"/>
</linearGradient>
<linearGradient id="paint3_linear" x1="159.219" y1="5" x2="169.219" y2="5" gradientUnits="userSpaceOnUse">
<stop stop-color="#FFE259"/>
<stop offset="1" stop-color="#FFA751"/>
</linearGradient>
<linearGradient id="paint4_linear" x1="191.146" y1="36.946" x2="201.146" y2="36.946" gradientUnits="userSpaceOnUse">
<stop stop-color="#FFE259"/>
<stop offset="1" stop-color="#FFA751"/>
</linearGradient>
<linearGradient id="paint5_linear" x1="254.998" y1="36.946" x2="264.998" y2="36.946" gradientUnits="userSpaceOnUse">
<stop stop-color="#FFE259"/>
<stop offset="1" stop-color="#FFA751"/>
</linearGradient>
<linearGradient id="paint6_linear" x1="31.9553" y1="100.838" x2="41.9553" y2="100.838" gradientUnits="userSpaceOnUse">
<stop stop-color="#FFE259"/>
<stop offset="1" stop-color="#FFA751"/>
</linearGradient>
<linearGradient id="paint7_linear" x1="287.365" y1="100.838" x2="297.365" y2="100.838" gradientUnits="userSpaceOnUse">
<stop stop-color="#FFE259"/>
<stop offset="1" stop-color="#FFA751"/>
</linearGradient>
<linearGradient id="paint8_linear" x1="159.66" y1="132.784" x2="169.66" y2="132.784" gradientUnits="userSpaceOnUse">
<stop stop-color="#FFE259"/>
<stop offset="1" stop-color="#FFA751"/>
</linearGradient>
<linearGradient id="paint9_linear" x1="255.439" y1="164.73" x2="265.439" y2="164.73" gradientUnits="userSpaceOnUse">
<stop stop-color="#FFE259"/>
<stop offset="1" stop-color="#FFA751"/>
</linearGradient>
<linearGradient id="paint10_linear" x1="31.926" y1="165.016" x2="41.926" y2="165.016" gradientUnits="userSpaceOnUse">
<stop stop-color="#FFE259"/>
<stop offset="1" stop-color="#FFA751"/>
</linearGradient>
<linearGradient id="paint11_linear" x1="95.8079" y1="228.622" x2="105.808" y2="228.622" gradientUnits="userSpaceOnUse">
<stop stop-color="#FFE259"/>
<stop offset="1" stop-color="#FFA751"/>
</linearGradient>
<linearGradient id="paint12_linear" x1="191.587" y1="228.622" x2="201.587" y2="228.622" gradientUnits="userSpaceOnUse">
<stop stop-color="#FFE259"/>
<stop offset="1" stop-color="#FFA751"/>
</linearGradient>
<linearGradient id="paint13_linear" x1="95.8281" y1="292.17" x2="105.828" y2="292.17" gradientUnits="userSpaceOnUse">
<stop stop-color="#FFE259"/>
<stop offset="1" stop-color="#FFA751"/>
</linearGradient>
<linearGradient id="paint14_linear" x1="191.607" y1="292.17" x2="201.607" y2="292.17" gradientUnits="userSpaceOnUse">
<stop stop-color="#FFE259"/>
<stop offset="1" stop-color="#FFA751"/>
</linearGradient>
<linearGradient id="paint15_linear" x1="4.99997" y1="299.972" x2="5.03711" y2="289.972" gradientUnits="userSpaceOnUse">
<stop stop-color="#FFE259"/>
<stop offset="1" stop-color="#FFA751"/>
</linearGradient>
</defs>
</svg>
