<svg width="214" height="214" viewBox="0 0 214 214" fill="none" xmlns="http://www.w3.org/2000/svg">
<path d="M202.667 21.3333H10.6667C4.77867 21.3333 0 16.5547 0 10.6667C0 4.77867 4.77867 0 10.6667 0H202.667C208.555 0 213.333 4.77867 213.333 10.6667C213.333 16.5547 208.555 21.3333 202.667 21.3333Z" fill="white"/>
<path d="M202.667 117.333H10.6667C4.77867 117.333 0 112.555 0 106.667C0 100.779 4.77867 96 10.6667 96H202.667C208.555 96 213.333 100.779 213.333 106.667C213.333 112.555 208.555 117.333 202.667 117.333Z" fill="white"/>
<path d="M202.667 213.333H10.6667C4.77867 213.333 0 208.555 0 202.667C0 196.779 4.77867 192 10.6667 192H202.667C208.555 192 213.333 196.779 213.333 202.667C213.333 208.555 208.555 213.333 202.667 213.333Z" fill="white"/>
</svg>
